<?xml version="1.0" standalone="no"?><!DOCTYPE svg PUBLIC "-//W3C//DTD SVG 1.1//EN" "http://www.w3.org/Graphics/SVG/1.1/DTD/svg11.dtd"><svg t="1738549953328" class="icon" viewBox="0 0 1024 1024" version="1.1" xmlns="http://www.w3.org/2000/svg" p-id="1759" xmlns:xlink="http://www.w3.org/1999/xlink" width="200" height="200"><path d="M163.84 204.8m81.92 0l491.52 0q81.92 0 81.92 81.92l0 286.72q0 81.92-81.92 81.92l-491.52 0q-81.92 0-81.92-81.92l0-286.72q0-81.92 81.92-81.92Z" fill="#4B91FF" p-id="1760"></path><path d="M718.848 92.16c162.73408 0 212.992 50.176 212.992 212.5824v259.2768c0 162.6112-50.05312 212.5824-212.5824 212.5824H263.86432c-162.36544 0.45056-212.66432-49.72544-212.66432-212.1728V304.7424c0-162.36544 50.21696-212.5824 212.5824-212.5824h455.0656z m8.8064 61.44H254.976c-120.66816 1.10592-142.336 25.68192-142.336 151.1424v268.4928c1.10592 120.66816 25.68192 142.29504 151.1424 141.9264h455.4752c128.6144 0 151.1424-22.48704 151.1424-151.1424V304.7424c0-128.45056-22.7328-151.1424-151.552-151.1424h8.8064z" fill="#292D32" p-id="1761"></path><path d="M491.52 715.5712a30.72 30.72 0 0 1 30.72 30.72V942.08a30.72 30.72 0 1 1-61.44 0v-195.7888a30.72 30.72 0 0 1 30.72-30.72zM901.12 542.72a30.72 30.72 0 1 1 0 61.44H81.92a30.72 30.72 0 1 1 0-61.44h819.2z" fill="#292D32" p-id="1762"></path><path d="M675.84 911.36a30.72 30.72 0 1 1 0 61.44h-368.64a30.72 30.72 0 1 1 0-61.44h368.64z" fill="#292D32" p-id="1763"></path></svg>